<svg xmlns="http://www.w3.org/2000/svg" viewBox="0 0 700 546" font-family="system-ui,sans-serif">
<rect width="700" height="546" fill="#0d1117"/>
<text x="350.0" y="34" fill="#8b949e" font-size="11" font-weight="700" letter-spacing="3" text-anchor="middle">PERSONAL OS · КЛЮЧЕВЫЕ ТЕЗИСЫ</text>
<text x="350.0" y="52" fill="#e6edf3" font-size="17" font-weight="700" text-anchor="middle">Эмоциональный интеллект руководителя</text>
<rect x="28" y="68" width="644" height="62" rx="10" fill="#161b22" stroke="#30363d" stroke-width="1"/>
<rect x="28" y="68" width="6" height="62" fill="#3fb950" rx="3"/>
<circle cx="58" cy="99.0" r="13" fill="none" stroke="#3fb950" stroke-width="1.5"/>
<text x="58" y="103.5" fill="#3fb950" font-size="13" font-weight="700" text-anchor="middle">1</text>
<text x="84" y="93.0" fill="#c9d1d9" font-size="13.5">Эмоциональный интеллект руководителя включает четыре компонента: самосознание,</text>
<text x="84" y="113.0" fill="#c9d1d9" font-size="13.5">самоуправление, социальную осведомлённость и управление отношениями.</text>
<rect x="28" y="142" width="644" height="62" rx="10" fill="#161b22" stroke="#30363d" stroke-width="1"/>
<rect x="28" y="142" width="6" height="62" fill="#1f6feb" rx="3"/>
<circle cx="58" cy="173.0" r="13" fill="none" stroke="#1f6feb" stroke-width="1.5"/>
<text x="58" y="177.5" fill="#1f6feb" font-size="13" font-weight="700" text-anchor="middle">2</text>
<text x="84" y="167.0" fill="#c9d1d9" font-size="13.5">На государственной службе EQ критичен для управления конфликтами, работы с</text>
<text x="84" y="187.0" fill="#c9d1d9" font-size="13.5">гражданами, устойчивости к стрессу и удержания кадров.</text>
<rect x="28" y="216" width="644" height="62" rx="10" fill="#161b22" stroke="#30363d" stroke-width="1"/>
<rect x="28" y="216" width="6" height="62" fill="#d4a017" rx="3"/>
<circle cx="58" cy="247.0" r="13" fill="none" stroke="#d4a017" stroke-width="1.5"/>
<text x="58" y="251.5" fill="#d4a017" font-size="13" font-weight="700" text-anchor="middle">3</text>
<text x="84" y="241.0" fill="#c9d1d9" font-size="13.5">Самосознание развивается через дневник эмоций, технику «стоп-пауза» и</text>
<text x="84" y="261.0" fill="#c9d1d9" font-size="13.5">переформулирование стрессовых состояний.</text>
<rect x="28" y="290" width="644" height="62" rx="10" fill="#161b22" stroke="#30363d" stroke-width="1"/>
<rect x="28" y="290" width="6" height="62" fill="#bc8cff" rx="3"/>
<circle cx="58" cy="321.0" r="13" fill="none" stroke="#bc8cff" stroke-width="1.5"/>
<text x="58" y="325.5" fill="#bc8cff" font-size="13" font-weight="700" text-anchor="middle">4</text>
<text x="84" y="315.0" fill="#c9d1d9" font-size="13.5">Управление отношениями строится на активном слушании, чтении невербальных</text>
<text x="84" y="335.0" fill="#c9d1d9" font-size="13.5">сигналов, «Я-сообщениях» и разрешении конфликтов через интересы.</text>
<rect x="28" y="364" width="644" height="62" rx="10" fill="#161b22" stroke="#30363d" stroke-width="1"/>
<rect x="28" y="364" width="6" height="62" fill="#f0883e" rx="3"/>
<circle cx="58" cy="395.0" r="13" fill="none" stroke="#f0883e" stroke-width="1.5"/>
<text x="58" y="399.5" fill="#f0883e" font-size="13" font-weight="700" text-anchor="middle">5</text>
<text x="84" y="389.0" fill="#c9d1d9" font-size="13.5">Специфика госслужбы требует от руководителя сознательного управления</text>
<text x="84" y="409.0" fill="#c9d1d9" font-size="13.5">эмоциональным контуром иерархии и профилактики выгорания.</text>
<rect x="28" y="438" width="644" height="62" rx="10" fill="#161b22" stroke="#30363d" stroke-width="1"/>
<rect x="28" y="438" width="6" height="62" fill="#39c5cf" rx="3"/>
<circle cx="58" cy="469.0" r="13" fill="none" stroke="#39c5cf" stroke-width="1.5"/>
<text x="58" y="473.5" fill="#39c5cf" font-size="13" font-weight="700" text-anchor="middle">6</text>
<text x="84" y="463.0" fill="#c9d1d9" font-size="13.5">Эмоциональный интеллект — измеримая управленческая компетенция, которая</text>
<text x="84" y="483.0" fill="#c9d1d9" font-size="13.5">учитывается при оценке и аттестации государственных служащих.</text>
<text x="350.0" y="536" fill="#8b949e" font-size="11" text-anchor="middle">Personal OS Learning · управленческие навыки госслужащего</text>
</svg>